<?xml version="1.0" standalone="no"?>
<!DOCTYPE svg PUBLIC "-//W3C//DTD SVG 20010904//EN"
 "http://www.w3.org/TR/2001/REC-SVG-20010904/DTD/svg10.dtd">
<svg version="1.0" xmlns="http://www.w3.org/2000/svg"
 width="1920.000000pt" height="1080.000000pt" viewBox="0 0 1920.000000 1080.000000"
 preserveAspectRatio="xMidYMid meet">

<g transform="translate(0.000000,1080.000000) scale(0.100000,-0.100000)"
fill="#000000" stroke="none">
<path d="M6011 8090 c-21 -21 -32 -44 -37 -77 -15 -103 16 -378 76 -673 17
-82 50 -450 50 -556 0 -36 0 -37 -20 -19 -19 17 -20 31 -20 247 l0 228 -347 0
c-297 0 -353 2 -390 16 -37 14 -43 21 -43 45 l0 29 -479 0 -480 0 -3 -26 c-5
-39 -85 -63 -215 -64 l-103 0 0 -43 0 -43 -72 -39 c-40 -22 -76 -41 -80 -43
-5 -2 -8 35 -8 82 l0 86 -80 0 -80 0 0 -150 0 -150 -320 0 -320 0 0 -1355 0
-1355 320 0 320 0 0 -195 0 -195 80 0 80 0 0 131 c0 72 3 129 8 127 4 -1 40
-21 80 -43 l72 -39 0 -88 0 -88 1030 0 1030 0 0 273 1 272 48 53 48 52 8 -207
c11 -308 12 -300 -18 -397 -54 -176 -56 -390 -6 -678 l22 -128 -76 -152 c-112
-223 -143 -377 -96 -475 28 -58 82 -88 183 -103 202 -30 455 45 776 230 62 35
71 38 180 44 142 7 209 23 352 82 61 25 134 48 162 51 28 3 130 -4 226 -16
421 -49 846 -80 1220 -88 330 -7 414 2 820 82 443 88 502 97 675 102 l161 5
270 -66 c383 -93 491 -109 749 -110 252 -1 298 6 540 84 99 32 210 64 248 70
134 24 245 -15 417 -146 149 -114 184 -136 296 -192 125 -63 268 -108 393
-123 158 -20 177 -3 201 181 22 170 -8 448 -59 549 -20 38 -21 52 -15 149 19
323 -110 841 -257 1029 -20 26 -49 64 -64 85 l-26 36 40 84 c22 45 50 117 61
158 28 97 38 286 20 370 -10 49 -10 71 1 123 16 73 17 135 5 437 -9 245 -3
365 40 790 13 135 27 317 30 405 6 155 4 179 -27 317 -13 56 -12 57 30 165 66
166 91 259 97 358 10 159 -37 312 -106 348 -74 38 -257 8 -485 -81 -138 -54
-302 -102 -388 -115 -83 -12 -154 -5 -472 43 -249 39 -535 60 -795 60 -297 0
-512 -19 -745 -65 -368 -73 -591 -90 -1055 -82 -184 3 -479 15 -655 26 -612
39 -865 23 -1225 -79 -234 -66 -246 -67 -420 -36 -196 34 -323 46 -504 46
l-152 0 -36 63 c-111 192 -260 298 -491 348 -52 11 -95 27 -100 35 -14 25 -63
17 -96 -16z m251 -210 c105 -33 168 -70 228 -131 48 -50 102 -138 127 -209 18
-50 18 -50 63 -50 286 -2 593 -29 750 -66 121 -28 214 -20 410 34 96 27 216
57 265 66 229 41 529 46 960 16 883 -61 1243 -49 1760 60 442 93 931 89 1535
-11 353 -59 488 -46 820 76 136 51 273 94 348 110 30 6 33 4 48 -32 22 -50 22
-151 0 -232 -9 -35 -39 -118 -67 -184 -72 -172 -77 -208 -43 -337 25 -97 26
-115 20 -230 -3 -69 -20 -266 -36 -439 -40 -410 -52 -654 -40 -823 5 -73 9
-148 10 -166 l0 -34 -56 51 c-79 69 -181 122 -252 128 -51 5 -59 3 -80 -20
-44 -46 -26 -126 32 -147 146 -52 251 -145 314 -277 37 -78 37 -79 36 -203 0
-109 -4 -134 -27 -200 -15 -41 -44 -102 -65 -135 -31 -50 -37 -69 -37 -115 0
-53 3 -60 79 -165 91 -127 154 -252 191 -379 55 -192 88 -454 83 -667 -3 -106
0 -129 16 -158 13 -24 21 -71 28 -155 10 -117 7 -301 -5 -312 -3 -3 -52 6
-109 20 -136 34 -293 113 -433 218 -223 166 -316 208 -476 216 -126 5 -198 -8
-395 -74 -177 -60 -245 -73 -409 -81 -236 -10 -387 11 -795 110 l-255 62 -180
-1 c-201 0 -262 -9 -678 -95 -354 -73 -549 -99 -745 -99 -264 0 -837 40 -1242
86 -304 35 -355 32 -525 -34 -144 -55 -228 -72 -365 -72 -98 0 -126 -9 -232
-71 -252 -149 -513 -231 -653 -205 l-38 7 7 53 c8 72 33 139 110 297 42 87 69
154 72 185 4 31 -2 99 -17 184 -32 189 -32 448 -1 564 12 44 33 98 46 120 36
62 140 160 205 194 84 45 102 95 55 151 -44 53 -107 38 -219 -51 l-50 -40 -3
127 c-3 152 13 258 57 370 31 80 58 117 134 182 32 27 37 37 37 73 0 75 -77
117 -137 75 -21 -15 -23 -14 -27 7 -29 140 -6 503 46 737 15 68 19 117 16 177
-4 76 -8 89 -50 161 -51 88 -70 142 -92 258 -29 153 -36 222 -51 520 -16 304
-20 341 -74 635 -45 249 -63 400 -46 400 3 0 46 -13 97 -30z m-1942 -630 c0
-5 -12 -10 -27 -9 l-28 1 25 8 c14 4 26 8 28 9 1 1 2 -3 2 -9z m-320 -738 c0
-531 -2 -634 -17 -728 -24 -158 -24 -742 0 -898 14 -88 17 -180 17 -479 0
-203 -3 -367 -8 -365 -4 2 -40 21 -80 43 l-72 39 0 1461 0 1460 73 42 c39 24
75 43 80 43 4 0 7 -278 7 -618z m2104 165 c3 -23 10 -85 16 -137 25 -222 63
-361 139 -504 47 -89 49 -107 22 -231 -54 -246 -71 -636 -37 -855 17 -115 17
-116 -4 -165 -32 -74 -70 -212 -70 -254 0 -22 -3 -31 -8 -23 -6 9 -17 2 -38
-25 -16 -20 -37 -46 -46 -57 -16 -20 -17 43 -17 1159 0 1163 0 1180 19 1157
10 -13 21 -42 24 -65z"/>
<path d="M12261 5032 c-41 -41 -42 -83 -2 -123 25 -24 37 -29 81 -29 189 0
400 -104 531 -262 28 -35 61 -68 73 -75 57 -33 126 5 126 70 0 42 -32 92 -113
175 -158 163 -356 255 -577 269 l-89 6 -30 -31z"/>
<path d="M14720 6745 l0 -125 -160 0 -160 0 -2 -181 -3 -181 -30 53 c-38 66
-74 93 -122 92 -48 -1 -103 -57 -103 -103 0 -17 25 -80 56 -142 176 -351 230
-748 163 -1211 -11 -77 -27 -168 -35 -204 -18 -76 -8 -121 33 -153 23 -18 40
-20 194 -20 l169 0 0 -95 0 -95 480 0 480 0 0 144 c0 91 7 190 19 272 54 352
54 716 0 1082 -16 116 -19 191 -19 563 l0 429 -480 0 -480 0 0 -125z"/>
</g>
</svg>
